<?xml version="1.0" standalone="no"?>
<!DOCTYPE svg PUBLIC "-//W3C//DTD SVG 20010904//EN"
 "http://www.w3.org/TR/2001/REC-SVG-20010904/DTD/svg10.dtd">
<svg version="1.0" xmlns="http://www.w3.org/2000/svg"
 width="400.000000pt" height="400.000000pt" viewBox="0 0 400.000000 400.000000"
 preserveAspectRatio="xMidYMid meet">
<metadata>
Created by potrace 1.11, written by Peter Selinger 2001-2013
</metadata>
<g transform="translate(0.000000,400.000000) scale(0.100000,-0.100000)"
fill="#000000" stroke="none">
<path d="M1755 3868 c-210 -35 -411 -90 -504 -137 -20 -11 -39 -19 -44 -20 -4
0 -40 -18 -80 -38 -39 -21 -76 -40 -81 -42 -4 -2 -48 -29 -96 -61 -161 -107
-327 -258 -441 -402 -42 -54 -159 -224 -159 -232 0 -2 -15 -30 -33 -63 -78
-137 -175 -417 -192 -553 -4 -30 -9 -58 -11 -61 -6 -10 -18 -198 -18 -279 1
-87 12 -258 18 -268 2 -4 7 -29 10 -57 14 -100 66 -280 118 -400 43 -101 112
-235 120 -235 5 0 8 -5 8 -11 0 -5 19 -38 42 -72 190 -285 460 -518 769 -665
151 -72 385 -144 509 -158 19 -2 60 -8 90 -13 59 -10 425 -8 450 2 8 4 33 8
55 11 47 5 68 9 195 42 105 26 264 85 361 134 71 36 232 134 251 154 7 7 20
17 29 22 66 38 226 189 316 299 96 116 93 111 130 170 18 28 36 55 40 61 34
45 157 299 158 324 0 3 3 10 7 15 5 9 48 146 52 170 1 6 5 19 9 30 11 35 31
151 43 250 10 79 10 325 0 395 -4 30 -9 73 -11 96 -2 22 -8 52 -14 66 -5 14
-8 28 -5 31 2 2 0 15 -5 29 -5 14 -11 38 -14 54 -10 63 -82 255 -136 364 -101
202 -202 343 -365 506 -271 271 -588 441 -973 520 -112 23 -155 27 -338 29
-115 1 -232 -2 -260 -7z"/>
</g>
</svg>
